<svg width="33" height="40" viewBox="0 0 33 40" fill="none" xmlns="http://www.w3.org/2000/svg">
<path d="M7.5 15L7.0575 15.4425L6.61625 15L7.0575 14.5575L7.5 15ZM22.5 14.375C22.6658 14.375 22.8247 14.4409 22.9419 14.5581C23.0592 14.6753 23.125 14.8342 23.125 15C23.125 15.1658 23.0592 15.3247 22.9419 15.4419C22.8247 15.5592 22.6658 15.625 22.5 15.625L22.5 14.375ZM12.0575 20.4425L7.0575 15.4425L7.9425 14.5575L12.9425 19.5575L12.0575 20.4425ZM7.0575 14.5575L12.0575 9.5575L12.9425 10.4425L7.9425 15.4425L7.0575 14.5575ZM7.5 14.375L22.5 14.375L22.5 15.625L7.5 15.625L7.5 14.375Z" fill="#315EC3"/>
<path d="M22.5 25L22.9425 24.5575L23.3838 25L22.9425 25.4425L22.5 25ZM7.5 25.625C7.33424 25.625 7.17527 25.5591 7.05806 25.4419C6.94085 25.3247 6.875 25.1658 6.875 25C6.875 24.8342 6.94085 24.6753 7.05806 24.5581C7.17527 24.4408 7.33424 24.375 7.5 24.375V25.625ZM17.9425 19.5575L22.9425 24.5575L22.0575 25.4425L17.0575 20.4425L17.9425 19.5575ZM22.9425 25.4425L17.9425 30.4425L17.0575 29.5575L22.0575 24.5575L22.9425 25.4425ZM22.5 25.625H7.5V24.375H22.5V25.625Z" fill="#EE3124"/>
</svg>
